<?xml version="1.0" encoding="UTF-8"?><svg id="Layer_2" xmlns="http://www.w3.org/2000/svg" viewBox="0 0 403.74 69.74"><defs><style>.cls-1{fill:#1d1d1b;stroke-width:0px;}</style></defs><g id="Layer_1-2"><path class="cls-1" d="M137.16,17.29l-5.1,4.27c-1.74-1.94-3.84-2.93-6.33-2.93-2.1,0-3.88.71-5.34,2.14s-2.18,3.21-2.18,5.34.71,3.92,2.18,5.34c1.46,1.38,3.24,2.1,5.34,2.1,2.49,0,4.59-.99,6.33-2.93l5.1,4.27c-2.85,3.36-6.96,5.38-11.43,5.38-4.19,0-7.75-1.34-10.68-4.04-2.89-2.69-4.35-6.05-4.35-10.13s1.46-7.44,4.35-10.13c2.93-2.73,6.49-4.08,10.68-4.08,4.47,0,8.59,2.02,11.43,5.38Z"/><path class="cls-1" d="M139.93,39.88V12.31h7.52v20.77h10.49v6.81h-18Z"/><path class="cls-1" d="M185.08,36.28c-2.97,2.77-6.53,4.15-10.76,4.15s-7.79-1.38-10.76-4.15c-2.97-2.81-4.43-6.17-4.43-10.09s1.46-7.28,4.43-10.09c2.97-2.81,6.53-4.19,10.76-4.19s7.79,1.39,10.76,4.19c2.97,2.77,4.47,6.13,4.47,10.09s-1.5,7.28-4.47,10.09ZM168.97,31.54c1.46,1.46,3.24,2.18,5.34,2.18s3.84-.75,5.3-2.22c1.5-1.5,2.25-3.28,2.25-5.3s-.75-3.8-2.25-5.3c-1.46-1.5-3.25-2.25-5.3-2.25s-3.84.75-5.3,2.25c-1.46,1.46-2.21,3.25-2.21,5.3s.71,3.88,2.18,5.34Z"/><path class="cls-1" d="M192.67,12.31h7.52v14.92c0,4.55,1.74,6.25,4.87,6.25s4.87-1.7,4.87-6.25v-14.92h7.52v15.71c0,4-1.19,7.04-3.52,9.14-2.33,2.1-5.3,3.13-8.86,3.13s-6.53-1.03-8.86-3.13c-2.33-2.1-3.52-5.14-3.52-9.14v-15.71Z"/><path class="cls-1" d="M221.63,39.88V12.31h11.2c4.79,0,8.43,1.27,10.96,3.84,2.57,2.57,3.84,5.89,3.84,10.01s-1.27,7.52-3.8,10.01c-2.49,2.49-6.17,3.72-10.96,3.72h-11.24ZM229.15,33.08h3.25c3.17,0,5.34-.71,6.33-2.1,1.07-1.38,1.35-2.77,1.35-4.83s-.28-3.4-1.35-4.71-3.17-2.02-6.37-2.02h-3.21v13.65Z"/><path class="cls-1" d="M261.75,39.88V12.31h6.73l11.55,14.8v-14.8h7.2v27.58h-6.13l-12.15-15.39v15.39h-7.2Z"/><path class="cls-1" d="M289.72,39.88l11.24-27.58h6.88l11.24,27.58h-7.95l-1.42-3.6h-10.6l-1.46,3.6h-7.91ZM301.07,30.47h6.65l-3.32-8.55-3.32,8.55Z"/><path class="cls-1" d="M323.78,39.88v-20.77h-7.44v-6.8h22.24v6.8h-7.28v20.77h-7.52Z"/><path class="cls-1" d="M341.19,39.88V12.31h7.52v27.58h-7.52Z"/><path class="cls-1" d="M362.51,39.88l-11.16-27.58h7.95l6.69,16.89,6.65-16.89h7.95l-11.16,27.58h-6.92Z"/><path class="cls-1" d="M383.09,39.88V12.31h20.34v6.77h-12.82v3.8h11.95v6.17h-11.95v4.19h13.14v6.65h-20.65Z"/><path class="cls-1" d="M119.11,51.85h-5.29l.42-2.02h12.82l-.42,2.02h-5.29l-3.56,17.5h-2.24l3.56-17.5Z"/><path class="cls-1" d="M131.85,49.83h11.03l-.42,2.02h-8.79l-1.26,6.19h8.26l-.39,2.02h-8.26l-1.48,7.28h8.99l-.42,2.02h-11.23l3.98-19.52Z"/><path class="cls-1" d="M148.59,49.83h2.24l-3.56,17.5h7.98l-.42,2.02h-10.22l3.98-19.52Z"/><path class="cls-1" d="M163.85,49.83h11.03l-.42,2.02h-8.79l-1.26,6.19h8.26l-.39,2.02h-8.26l-1.48,7.28h8.99l-.42,2.02h-11.23l3.98-19.52Z"/><path class="cls-1" d="M188.32,49.47c3.39,0,6.16,1.54,7.78,3.98l-1.71,1.34c-1.26-2.04-3.42-3.3-6.19-3.3-5.12,0-8.93,4.56-8.93,9.16,0,4.09,2.91,7.08,7.42,7.08,2.35,0,4.42-1.01,5.94-2.52l1.34,1.48c-1.9,1.85-4.51,3.05-7.48,3.05-5.52,0-9.38-3.72-9.38-8.93,0-5.94,4.9-11.34,11.2-11.34Z"/><path class="cls-1" d="M209.69,49.47c5.57,0,9.46,3.81,9.46,9.1,0,5.66-4.7,11.17-11.28,11.17-5.52,0-9.38-3.72-9.38-8.93,0-5.94,4.9-11.34,11.2-11.34ZM208.06,67.72c5.1,0,8.93-4.45,8.93-8.99,0-4.2-2.91-7.25-7.42-7.25-5.12,0-8.93,4.56-8.93,9.16,0,4.09,2.91,7.08,7.42,7.08Z"/><path class="cls-1" d="M226.21,49.83h2.02l4.76,12.43,10.14-12.43h1.99l-3.98,19.52h-2.16l3.08-15.04-9.69,11.76-4.82-12.21-3.16,15.48h-2.16l3.98-19.52Z"/><path class="cls-1" d="M263.11,49.83h2.24l-3.98,19.52h-2.24l3.98-19.52Z"/><path class="cls-1" d="M271.99,49.83h1.71l8.79,15.74,3.19-15.74h2.18l-3.98,19.52h-1.6l-8.88-15.88-3.22,15.88h-2.18l3.98-19.52Z"/><path class="cls-1" d="M294.5,49.83h2.24l-3.98,19.52h-2.24l3.98-19.52Z"/><path class="cls-1" d="M306.51,51.85h-5.29l.42-2.02h12.82l-.42,2.02h-5.29l-3.56,17.5h-2.24l3.56-17.5Z"/><path class="cls-1" d="M319.36,49.83h2.24l-3.98,19.52h-2.24l3.98-19.52Z"/><path class="cls-1" d="M334.62,49.83h1.65l4.31,19.52h-2.18l-1.06-4.82h-9.55l-3.02,4.82h-2.38l12.24-19.52ZM336.89,62.51l-2.02-9.35-5.8,9.35h7.81Z"/><path class="cls-1" d="M349.82,51.85h-5.29l.42-2.02h12.82l-.42,2.02h-5.29l-3.56,17.5h-2.24l3.56-17.5Z"/><path class="cls-1" d="M362.68,49.83h2.24l-3.98,19.52h-2.24l3.98-19.52Z"/><path class="cls-1" d="M369.59,49.83h2.16l3.44,15.85,9.88-15.85h2.41l-12.15,19.52h-1.54l-4.2-19.52Z"/><path class="cls-1" d="M392.22,49.83h11.03l-.42,2.02h-8.79l-1.26,6.19h8.26l-.39,2.02h-8.26l-1.48,7.28h8.99l-.42,2.02h-11.23l3.98-19.52Z"/><path class="cls-1" d="M80.83,24.71v7.62c6.34,1.9,10.97,7.78,10.97,14.72s-4.59,12.77-10.89,14.69v7.64c10.43-2.08,18.31-11.31,18.31-22.34s-7.92-20.29-18.39-22.34Z"/><path class="cls-1" d="M21.82,61.86h-4.51c-.16-.02-.39-.03-.55-.04-.17-.01-.47-.02-.63-.06-.61-.09-1.31-.22-1.89-.41-4.49-1.39-7.63-5.88-6.66-10.58,1.66-7.71,11.75-10.1,17.25-4.79l5.66-4.73c-2.2-3.44-3.43-7.43-3.54-11.49-.23-7.32,3.15-14.33,9.45-18.2,6.76-4.17,16.15-4.44,23.19-.81,3.92,2.03,6.86,5.46,8.37,9.55h8.71c-.13-.59-.29-1.17-.48-1.75-2.03-6.43-6.75-12.1-12.75-15.14C59.53,1.37,55.17.32,50.82.08c-17.64-1.22-32.51,11.96-31.61,29.98.09,1.96.38,3.91.86,5.82-5-.69-10.26.72-14.13,4.02C2.51,42.75.24,47.08.03,51.55c-.56,10.27,8.19,18.05,18.2,17.73h1.74s.67,0,1.86,0v-7.42Z"/><rect class="cls-1" x="68.23" y="24.19" width="8.86" height="45.17"/><rect class="cls-1" x="54.17" y="33.06" width="8.9" height="36.3"/><rect class="cls-1" x="40.15" y="42.17" width="8.89" height="27.2"/><rect class="cls-1" x="26.09" y="51.23" width="8.93" height="18.13"/></g></svg>