<?xml version="1.0" encoding="UTF-8"?>
<svg id="Layer_1" data-name="Layer 1" xmlns="http://www.w3.org/2000/svg" version="1.1" viewBox="0 0 216 216">
  <defs>
    <style>
      .cls-1 {
        fill: #0086c1;
      }

      .cls-1, .cls-2 {
        stroke-width: 0px;
      }

      .cls-2 {
        fill: #4fb04e;
      }

      .cls-3 {
        fill: none;
        stroke: #1d1e1c;
        stroke-linecap: round;
        stroke-width: 7.4px;
      }
    </style>
  </defs>
  <path class="cls-3" d="M133.6,101.2"/>
  <g>
    <path class="cls-1" d="M139.3,98.5v7.6c6.3,1.9,11,7.8,11,14.7s-4.6,12.8-10.9,14.7v7.6c10.4-2.1,18.3-11.3,18.3-22.3s-7.9-20.3-18.4-22.3Z"/>
    <path class="cls-1" d="M80.3,135.7h-4.5c-.2,0-.4,0-.6,0-.2,0-.5,0-.6,0-.6,0-1.3-.2-1.9-.4-4.5-1.4-7.6-5.9-6.7-10.6,1.7-7.7,11.8-10.1,17.3-4.8l5.7-4.7c-2.2-3.4-3.4-7.4-3.5-11.5-.2-7.3,3.1-14.3,9.5-18.2,6.8-4.2,16.2-4.4,23.2-.8,3.9,2,6.9,5.5,8.4,9.6h8.7c-.1-.6-.3-1.2-.5-1.7-2-6.4-6.8-12.1-12.7-15.1-3.9-2.1-8.3-3.1-12.6-3.3-17.6-1.2-32.5,12-31.6,30,0,2,.4,3.9.9,5.8-5-.7-10.3.7-14.1,4-3.4,2.8-5.7,7.2-5.9,11.6-.6,10.3,8.2,18.1,18.2,17.7h1.7s.7,0,1.9,0v-7.4Z"/>
  </g>
  <g>
    <rect class="cls-2" x="126.7" y="98" width="8.9" height="45.2"/>
    <rect class="cls-2" x="112.6" y="106.9" width="8.9" height="36.3"/>
    <rect class="cls-2" x="98.6" y="116" width="8.9" height="27.2"/>
    <rect class="cls-2" x="84.5" y="125" width="8.9" height="18.1"/>
  </g>
</svg>